<mxfile host="app.diagrams.net" modified="2024-05-27T12:45:56.606Z" agent="Mozilla/5.0 (X11; Linux x86_64; rv:109.0) Gecko/20100101 Firefox/115.0" version="24.4.9" etag="dRaBY3s0wpIC7_XKhlXg" type="github">
  <diagram name="PÃ¡gina-1" id="GQ9tY2Y63L0xvDBAilXe">
    <mxGraphModel>
      <root>
        <mxCell id="0" />
        <mxCell id="1" parent="0" />
      </root>
    </mxGraphModel>
  </diagram>
</mxfile>
